<svg width="724" height="490" xmlns="http://www.w3.org/2000/svg" xmlns:xlink="http://www.w3.org/1999/xlink" xml:space="preserve" overflow="hidden"><g transform="translate(-770 -747)"><g><path d="M859.512 1004.13C850.712 1004.13 840.372 1008.75 834.432 1018.87 829.152 1028.55 829.152 1040.43 829.152 1049.01 829.152 1056.93 829.152 1070.35 834.652 1080.03 840.592 1090.15 850.272 1094.77 859.732 1094.77 870.732 1094.77 880.412 1088.39 885.252 1078.49 890.092 1068.81 890.092 1056.93 890.092 1049.01 890.092 1040.65 890.092 1027.89 884.372 1018.43 878.652 1008.97 869.192 1004.13 859.512 1004.13ZM954.112 1000.61 954.112 1073.65C954.112 1085.09 954.992 1095.43 973.472 1095.43 989.532 1095.43 1000.09 1080.47 1000.09 1061.33L1000.09 1022.17C1000.09 1011.39 998.332 1009.85 982.932 1009.85L982.932 1003.03 1015.27 1000.61 1015.27 1078.71C1015.27 1089.49 1017.03 1091.03 1032.43 1091.03L1032.43 1097.85 1000.75 1100.27 1000.75 1080.91 1000.53 1080.91C994.372 1094.11 984.692 1100.27 972.372 1100.27 938.932 1100.27 938.932 1080.25 938.932 1063.09L938.932 1030.09C938.932 1010.51 938.932 1009.85 921.772 1009.85L921.772 1003.03ZM859.732 999.289C886.352 999.289 908.352 1022.61 908.352 1050.77 908.352 1078.71 886.132 1100.27 859.512 1100.27 833.772 1100.27 810.892 1079.15 810.892 1050.77 810.892 1023.27 832.232 999.289 859.732 999.289Z" stroke="#000000" stroke-width="3" stroke-linecap="butt" stroke-linejoin="miter" stroke-miterlimit="8" stroke-opacity="1" fill="#000000" fill-rule="evenodd" fill-opacity="1"/><text fill="#000000" fill-opacity="0" font-family="Arial,sans-serif" font-size="100.98" direction="ltr" writing-mode="lr-tb" x="810.892" y="1087.65">ou</text><path d="M1069.62 962.549 1075.12 962.549 1075.12 1003.03 1106.58 1003.03 1106.58 1009.85 1075.12 1009.85 1075.12 1071.01C1075.12 1074.75 1075.12 1094.77 1089.86 1094.77 1098 1094.77 1104.6 1086.41 1104.6 1070.13L1104.6 1058.03 1110.1 1058.03 1110.1 1070.57C1110.1 1084.65 1103.94 1100.27 1088.32 1100.27 1080.4 1100.27 1059.94 1097.63 1059.94 1070.57L1059.94 1009.85 1041.24 1009.85 1041.24 1005.01C1062.8 1004.13 1069.4 980.589 1069.62 962.549Z" stroke="#000000" stroke-width="3" stroke-linecap="butt" stroke-linejoin="miter" stroke-miterlimit="8" stroke-opacity="1" fill="#000000" fill-rule="evenodd" fill-opacity="1"/><text fill="#000000" fill-opacity="0" font-family="Arial,sans-serif" font-size="137.72" direction="ltr" writing-mode="lr-tb" x="1041.24" y="1083.05">t</text><path d="M1152.41 884.009 1152.41 1081.13C1152.41 1091.03 1154.83 1091.03 1169.57 1091.03L1169.57 1097.85 1145.15 1097.19 1120.73 1097.85 1120.73 1091.03C1135.47 1091.03 1137.89 1091.03 1137.89 1081.13L1137.89 905.569C1137.89 894.789 1136.13 893.249 1120.73 893.249L1120.73 886.429Z" stroke="#000000" stroke-width="3" stroke-linecap="butt" stroke-linejoin="miter" stroke-miterlimit="8" stroke-opacity="1" fill="none" fill-rule="evenodd"/><text fill="#000000" fill-opacity="0" font-family="Arial,sans-serif" font-size="213.84" direction="ltr" writing-mode="lr-tb" x="1120.73" y="1071.12">l</text><path d="M1410.04 1004.13C1402.56 1004.13 1384.08 1009.63 1382.76 1042.41L1434.9 1042.41C1434.9 1033.83 1432.7 1004.13 1410.04 1004.13ZM1273.85 1000.61 1273.85 1023.27 1274.07 1023.27C1280.01 1010.07 1290.35 1000.61 1306.41 1000.61 1319.17 1000.61 1326.43 1005.01 1329.51 1008.75 1336.33 1016.67 1336.33 1023.49 1336.33 1042.41L1336.33 1084.43C1336.55 1091.03 1342.05 1091.03 1353.49 1091.03L1353.49 1097.85 1328.85 1097.19 1303.99 1097.85 1303.99 1091.03C1318.73 1091.03 1321.15 1091.03 1321.15 1081.13L1321.15 1029.87C1321.15 1017.33 1318.73 1005.45 1304.87 1005.45 1290.79 1005.45 1275.17 1017.77 1275.17 1040.65L1275.17 1081.13C1275.17 1091.03 1277.59 1091.03 1292.33 1091.03L1292.33 1097.85 1267.69 1097.19 1242.83 1097.85 1242.83 1091.03C1257.57 1091.03 1259.99 1091.03 1259.99 1081.13L1259.99 1022.17C1259.99 1011.39 1258.23 1009.85 1242.83 1009.85L1242.83 1003.03ZM1213.57 1000.61 1213.57 1081.35C1213.57 1089.93 1214.45 1091.03 1228.97 1091.03L1228.97 1097.85C1221.49 1097.63 1213.79 1097.19 1206.09 1097.19L1181.89 1097.85 1181.89 1091.03C1196.63 1091.03 1199.05 1091.03 1199.05 1081.13L1199.05 1021.95C1199.05 1011.17 1197.07 1009.85 1182.77 1009.85L1182.77 1003.03ZM1410.04 999.289C1437.54 999.289 1449.42 1020.63 1449.42 1042.41 1449.42 1047.03 1448.76 1047.03 1443.92 1047.03L1382.54 1047.03C1382.54 1054.95 1382.54 1069.47 1389.14 1080.03 1394.2 1088.17 1403 1094.77 1414 1094.77 1416.2 1094.77 1436 1094.77 1443.7 1072.11 1444.14 1070.35 1444.58 1069.03 1446.56 1069.03 1447.66 1069.03 1449.42 1069.47 1449.42 1071.67 1449.42 1075.85 1439.52 1100.27 1412.68 1100.27 1387.38 1100.27 1364.28 1078.93 1364.28 1049.45 1364.28 1021.95 1384.52 999.289 1410.04 999.289ZM1205.21 928.669C1211.81 928.669 1216.87 934.388 1216.87 940.328 1216.87 945.828 1212.47 951.989 1204.99 951.989 1198.39 951.989 1193.33 946.268 1193.33 940.328 1193.33 934.828 1197.73 928.669 1205.21 928.669Z" stroke="#000000" stroke-width="3" stroke-linecap="butt" stroke-linejoin="miter" stroke-miterlimit="8" stroke-opacity="1" fill="#000000" fill-rule="evenodd" fill-opacity="1"/><text fill="#000000" fill-opacity="0" font-family="Arial,sans-serif" font-size="171.6" direction="ltr" writing-mode="lr-tb" x="1181.89" y="1078.82">ine</text></g></g></svg>
