<?xml version="1.0" encoding="UTF-8" standalone="no"?>
<svg
   width="641.52802"
   height="219.4989"
   xml:space="preserve"
   overflow="hidden"
   version="1.1"
   id="svg5"
   sodipodi:docname="logo.svg"
   inkscape:version="1.3.2 (091e20e, 2023-11-25)"
   xmlns:inkscape="http://www.inkscape.org/namespaces/inkscape"
   xmlns:sodipodi="http://sodipodi.sourceforge.net/DTD/sodipodi-0.dtd"
   xmlns="http://www.w3.org/2000/svg"
   xmlns:svg="http://www.w3.org/2000/svg"><defs
     id="defs5" /><sodipodi:namedview
     id="namedview5"
     pagecolor="#ffffff"
     bordercolor="#000000"
     borderopacity="0.25"
     inkscape:showpageshadow="2"
     inkscape:pageopacity="0.0"
     inkscape:pagecheckerboard="0"
     inkscape:deskcolor="#d1d1d1"
     inkscape:zoom="0.48163265"
     inkscape:cx="322.86017"
     inkscape:cy="110.04237"
     inkscape:window-width="1728"
     inkscape:window-height="1051"
     inkscape:window-x="0"
     inkscape:window-y="38"
     inkscape:window-maximized="1"
     inkscape:current-layer="svg5" /><g
     transform="translate(-809.392,-882.39005)"
     id="g5"><g
       id="g4"><path
         d="m 859.512,1004.13 c -8.8,0 -19.14,4.62 -25.08,14.74 -5.28,9.68 -5.28,21.56 -5.28,30.14 0,7.92 0,21.34 5.5,31.02 5.94,10.12 15.62,14.74 25.08,14.74 11,0 20.68,-6.38 25.52,-16.28 4.84,-9.68 4.84,-21.56 4.84,-29.48 0,-8.36 0,-21.12 -5.72,-30.58 -5.72,-9.46 -15.18,-14.3 -24.86,-14.3 z m 94.6,-3.52 v 73.04 c 0,11.44 0.88,21.78 19.36,21.78 16.06,0 26.618,-14.96 26.618,-34.1 v -39.16 c 0,-10.78 -1.758,-12.32 -17.158,-12.32 v -6.82 l 32.338,-2.42 v 78.1 c 0,10.78 1.76,12.32 17.16,12.32 v 6.82 l -31.68,2.42 v -19.36 h -0.22 c -6.158,13.2 -15.838,19.36 -28.158,19.36 -33.44,0 -33.44,-20.02 -33.44,-37.18 v -33 c 0,-19.58 0,-20.24 -17.16,-20.24 v -6.82 z m -94.38,-1.321 c 26.62,0 48.62,23.321 48.62,51.481 0,27.94 -22.22,49.5 -48.84,49.5 -25.74,0 -48.62,-21.12 -48.62,-49.5 0,-27.5 21.34,-51.481 48.84,-51.481 z"
         stroke="#000000"
         stroke-width="3"
         stroke-linecap="butt"
         stroke-linejoin="miter"
         stroke-miterlimit="8"
         stroke-opacity="1"
         fill="#000000"
         fill-rule="evenodd"
         fill-opacity="1"
         id="path1" /><text
         fill="#000000"
         fill-opacity="0"
         font-family="Arial, sans-serif"
         font-size="100.98px"
         direction="ltr"
         writing-mode="lr-tb"
         x="810.89203"
         y="1087.65"
         id="text1">ou</text><path
         d="m 1069.62,962.549 h 5.5 v 40.481 h 31.46 v 6.82 h -31.46 v 61.16 c 0,3.74 0,23.76 14.74,23.76 8.14,0 14.74,-8.36 14.74,-24.64 v -12.1 h 5.5 v 12.54 c 0,14.08 -6.16,29.7 -21.78,29.7 -7.92,0 -28.38,-2.64 -28.38,-29.7 v -60.72 h -18.7 v -4.84 c 21.56,-0.88 28.16,-24.421 28.38,-42.461 z"
         stroke="#000000"
         stroke-width="3"
         stroke-linecap="butt"
         stroke-linejoin="miter"
         stroke-miterlimit="8"
         stroke-opacity="1"
         fill="#000000"
         fill-rule="evenodd"
         fill-opacity="1"
         id="path2" /><text
         fill="#000000"
         fill-opacity="0"
         font-family="Arial, sans-serif"
         font-size="137.72px"
         direction="ltr"
         writing-mode="lr-tb"
         x="1041.24"
         y="1083.05"
         id="text2">t</text><path
         d="m 1152.41,884.009 v 197.121 c 0,9.9 2.42,9.9 17.16,9.9 v 6.82 l -24.42,-0.66 -24.42,0.66 v -6.82 c 14.74,0 17.16,0 17.16,-9.9 V 905.569 c 0,-10.78 -1.76,-12.32 -17.16,-12.32 v -6.82 z"
         stroke="#000000"
         stroke-width="3"
         stroke-linecap="butt"
         stroke-linejoin="miter"
         stroke-miterlimit="8"
         stroke-opacity="1"
         fill="none"
         fill-rule="evenodd"
         id="path3" /><text
         fill="#000000"
         fill-opacity="0"
         font-family="Arial, sans-serif"
         font-size="213.84px"
         direction="ltr"
         writing-mode="lr-tb"
         x="1120.73"
         y="1071.12"
         id="text3">l</text><path
         d="m 1410.04,1004.13 c -7.48,0 -25.96,5.5 -27.28,38.28 h 52.14 c 0,-8.58 -2.2,-38.28 -24.86,-38.28 z m -136.19,-3.52 v 22.66 h 0.22 c 5.94,-13.2 16.28,-22.66 32.34,-22.66 12.76,0 20.02,4.4 23.1,8.14 6.82,7.92 6.82,14.74 6.82,33.66 v 42.02 c 0.22,6.6 5.72,6.6 17.16,6.6 v 6.82 l -24.64,-0.66 -24.86,0.66 v -6.82 c 14.74,0 17.16,0 17.16,-9.9 v -51.26 c 0,-12.54 -2.42,-24.42 -16.28,-24.42 -14.08,0 -29.7,12.32 -29.7,35.2 v 40.48 c 0,9.9 2.42,9.9 17.16,9.9 v 6.82 l -24.64,-0.66 -24.86,0.66 v -6.82 c 14.74,0 17.16,0 17.16,-9.9 v -58.96 c 0,-10.78 -1.76,-12.32 -17.16,-12.32 v -6.82 z m -60.28,0 v 80.74 c 0,8.58 0.88,9.68 15.4,9.68 v 6.82 c -7.48,-0.22 -15.18,-0.66 -22.88,-0.66 l -24.2,0.66 v -6.82 c 14.74,0 17.16,0 17.16,-9.9 v -59.18 c 0,-10.78 -1.98,-12.1 -16.28,-12.1 v -6.82 z m 196.47,-1.321 c 27.5,0 39.38,21.341 39.38,43.121 0,4.62 -0.66,4.62 -5.5,4.62 h -61.38 c 0,7.92 0,22.44 6.6,33 5.06,8.14 13.86,14.74 24.86,14.74 2.2,0 22,0 29.7,-22.66 0.44,-1.76 0.88,-3.08 2.86,-3.08 1.1,0 2.86,0.44 2.86,2.64 0,4.18 -9.9,28.6 -36.74,28.6 -25.3,0 -48.4,-21.34 -48.4,-50.82 0,-27.5 20.24,-50.161 45.76,-50.161 z m -204.83,-70.62 c 6.6,0 11.66,5.719 11.66,11.659 0,5.5 -4.4,11.661 -11.88,11.661 -6.6,0 -11.66,-5.721 -11.66,-11.661 0,-5.5 4.4,-11.659 11.88,-11.659 z"
         stroke="#000000"
         stroke-width="3"
         stroke-linecap="butt"
         stroke-linejoin="miter"
         stroke-miterlimit="8"
         stroke-opacity="1"
         fill="#000000"
         fill-rule="evenodd"
         fill-opacity="1"
         id="path4" /><text
         fill="#000000"
         fill-opacity="0"
         font-family="Arial, sans-serif"
         font-size="171.6px"
         direction="ltr"
         writing-mode="lr-tb"
         x="1181.89"
         y="1078.8199"
         id="text4">ine</text></g></g></svg>
